<svg width="32" height="32" viewBox="0 0 32 33" fill="none" xmlns="http://www.w3.org/2000/svg">
<path d="M14.6667 5.83333H5.33333C4.62609 5.83333 3.94781 6.11429 3.44772 6.61438C2.94762 7.11448 2.66667 7.79276 2.66667 8.5V27.1667C2.66667 27.8739 2.94762 28.5522 3.44772 29.0523C3.94781 29.5524 4.62609 29.8333 5.33333 29.8333H24C24.7072 29.8333 25.3855 29.5524 25.8856 29.0523C26.3857 28.5522 26.6667 27.8739 26.6667 27.1667V17.8333" stroke="#242424" stroke-width="2" stroke-linecap="round" stroke-linejoin="round"/>
<path d="M24.6667 3.83333C25.1971 3.3029 25.9165 3.00491 26.6667 3.00491C27.4168 3.00491 28.1362 3.3029 28.6667 3.83333C29.1971 4.36377 29.4951 5.08319 29.4951 5.83333C29.4951 6.58348 29.1971 7.3029 28.6667 7.83333L16 20.5L10.6667 21.8333L12 16.5L24.6667 3.83333Z" stroke="#242424" stroke-width="2" stroke-linecap="round" stroke-linejoin="round"/>
</svg>
